<mxfile host="65bd71144e">
    <diagram id="FijeTby2EyN-7NyLlDYY" name="Login">
        <mxGraphModel dx="919" dy="695" grid="1" gridSize="10" guides="1" tooltips="1" connect="1" arrows="1" fold="1" page="1" pageScale="1" pageWidth="850" pageHeight="1100" math="0" shadow="0">
            <root>
                <mxCell id="0"/>
                <mxCell id="1" parent="0"/>
                <mxCell id="bwiVI-DXOcjcneLZxq-_-1" style="edgeStyle=none;html=1;exitX=0.5;exitY=1;exitDx=0;exitDy=0;entryX=0.5;entryY=0;entryDx=0;entryDy=0;" edge="1" parent="1" source="bwiVI-DXOcjcneLZxq-_-2" target="bwiVI-DXOcjcneLZxq-_-6">
                    <mxGeometry relative="1" as="geometry"/>
                </mxCell>
                <mxCell id="bwiVI-DXOcjcneLZxq-_-2" value="" style="ellipse;fillColor=strokeColor;" vertex="1" parent="1">
                    <mxGeometry x="280" y="40" width="40" height="40" as="geometry"/>
                </mxCell>
                <mxCell id="bwiVI-DXOcjcneLZxq-_-3" value="No" style="text;html=1;strokeColor=none;fillColor=none;align=center;verticalAlign=middle;whiteSpace=wrap;rounded=0;" vertex="1" parent="1">
                    <mxGeometry x="200" y="440" width="60" height="20" as="geometry"/>
                </mxCell>
                <mxCell id="bwiVI-DXOcjcneLZxq-_-4" value="Yes" style="text;html=1;strokeColor=none;fillColor=none;align=center;verticalAlign=middle;whiteSpace=wrap;rounded=0;" vertex="1" parent="1">
                    <mxGeometry x="200" y="520" width="60" height="20" as="geometry"/>
                </mxCell>
                <mxCell id="bwiVI-DXOcjcneLZxq-_-5" style="edgeStyle=none;html=1;exitX=0.5;exitY=1;exitDx=0;exitDy=0;entryX=0.5;entryY=0;entryDx=0;entryDy=0;" edge="1" parent="1" source="bwiVI-DXOcjcneLZxq-_-6" target="bwiVI-DXOcjcneLZxq-_-8">
                    <mxGeometry relative="1" as="geometry">
                        <Array as="points">
                            <mxPoint x="300" y="180"/>
                            <mxPoint x="620" y="180"/>
                        </Array>
                    </mxGeometry>
                </mxCell>
                <mxCell id="bwiVI-DXOcjcneLZxq-_-6" value="Choose role" style="rounded=1;whiteSpace=wrap;html=1;" vertex="1" parent="1">
                    <mxGeometry x="240" y="120" width="120" height="40" as="geometry"/>
                </mxCell>
                <mxCell id="bwiVI-DXOcjcneLZxq-_-7" style="edgeStyle=none;html=1;exitX=0.5;exitY=1;exitDx=0;exitDy=0;entryX=0.5;entryY=0;entryDx=0;entryDy=0;" edge="1" parent="1" source="bwiVI-DXOcjcneLZxq-_-8" target="bwiVI-DXOcjcneLZxq-_-11">
                    <mxGeometry relative="1" as="geometry">
                        <mxPoint x="300" y="280" as="targetPoint"/>
                        <Array as="points">
                            <mxPoint x="620" y="260"/>
                            <mxPoint x="300" y="260"/>
                        </Array>
                    </mxGeometry>
                </mxCell>
                <mxCell id="bwiVI-DXOcjcneLZxq-_-8" value="Display Login page" style="rounded=1;whiteSpace=wrap;html=1;" vertex="1" parent="1">
                    <mxGeometry x="560" y="200" width="120" height="40" as="geometry"/>
                </mxCell>
                <mxCell id="bwiVI-DXOcjcneLZxq-_-9" style="edgeStyle=none;html=1;exitX=0;exitY=0.5;exitDx=0;exitDy=0;entryX=1;entryY=0.5;entryDx=0;entryDy=0;" edge="1" parent="1" source="bwiVI-DXOcjcneLZxq-_-11" target="bwiVI-DXOcjcneLZxq-_-18">
                    <mxGeometry relative="1" as="geometry"/>
                </mxCell>
                <mxCell id="bwiVI-DXOcjcneLZxq-_-10" style="edgeStyle=none;html=1;exitX=0.5;exitY=1;exitDx=0;exitDy=0;entryX=0.5;entryY=0;entryDx=0;entryDy=0;" edge="1" parent="1" source="bwiVI-DXOcjcneLZxq-_-11" target="bwiVI-DXOcjcneLZxq-_-23">
                    <mxGeometry relative="1" as="geometry"/>
                </mxCell>
                <mxCell id="bwiVI-DXOcjcneLZxq-_-11" value="" style="rhombus;whiteSpace=wrap;html=1;" vertex="1" parent="1">
                    <mxGeometry x="280" y="280" width="40" height="40" as="geometry"/>
                </mxCell>
                <mxCell id="bwiVI-DXOcjcneLZxq-_-12" style="edgeStyle=none;html=1;exitX=1;exitY=0.5;exitDx=0;exitDy=0;entryX=1;entryY=0.5;entryDx=0;entryDy=0;" edge="1" parent="1" source="bwiVI-DXOcjcneLZxq-_-13" target="bwiVI-DXOcjcneLZxq-_-27">
                    <mxGeometry relative="1" as="geometry">
                        <Array as="points">
                            <mxPoint x="720" y="460"/>
                            <mxPoint x="720" y="300"/>
                        </Array>
                    </mxGeometry>
                </mxCell>
                <mxCell id="bwiVI-DXOcjcneLZxq-_-13" value="Display Error" style="rounded=1;whiteSpace=wrap;html=1;" vertex="1" parent="1">
                    <mxGeometry x="560" y="440" width="120" height="40" as="geometry"/>
                </mxCell>
                <mxCell id="bwiVI-DXOcjcneLZxq-_-14" style="edgeStyle=none;html=1;exitX=0.5;exitY=1;exitDx=0;exitDy=0;entryX=0;entryY=0.5;entryDx=0;entryDy=0;" edge="1" parent="1" source="bwiVI-DXOcjcneLZxq-_-15" target="bwiVI-DXOcjcneLZxq-_-16">
                    <mxGeometry relative="1" as="geometry"/>
                </mxCell>
                <mxCell id="bwiVI-DXOcjcneLZxq-_-15" value="Display Homepage" style="rounded=1;whiteSpace=wrap;html=1;" vertex="1" parent="1">
                    <mxGeometry x="560" y="520" width="120" height="40" as="geometry"/>
                </mxCell>
                <mxCell id="bwiVI-DXOcjcneLZxq-_-16" value="" style="ellipse;html=1;shape=endState;fillColor=strokeColor;direction=south;" vertex="1" parent="1">
                    <mxGeometry x="600" y="600" width="40" height="40" as="geometry"/>
                </mxCell>
                <mxCell id="bwiVI-DXOcjcneLZxq-_-17" style="edgeStyle=none;html=1;exitX=0.5;exitY=1;exitDx=0;exitDy=0;entryX=0.5;entryY=0;entryDx=0;entryDy=0;" edge="1" parent="1" source="bwiVI-DXOcjcneLZxq-_-18" target="bwiVI-DXOcjcneLZxq-_-32">
                    <mxGeometry relative="1" as="geometry"/>
                </mxCell>
                <mxCell id="bwiVI-DXOcjcneLZxq-_-18" value="Enter Keys" style="rounded=1;whiteSpace=wrap;html=1;" vertex="1" parent="1">
                    <mxGeometry x="120" y="280" width="120" height="40" as="geometry"/>
                </mxCell>
                <mxCell id="bwiVI-DXOcjcneLZxq-_-19" style="edgeStyle=none;html=1;exitX=1;exitY=0.5;exitDx=0;exitDy=0;entryX=0;entryY=0.5;entryDx=0;entryDy=0;" edge="1" parent="1" source="bwiVI-DXOcjcneLZxq-_-21" target="bwiVI-DXOcjcneLZxq-_-25">
                    <mxGeometry relative="1" as="geometry"/>
                </mxCell>
                <mxCell id="bwiVI-DXOcjcneLZxq-_-20" style="edgeStyle=none;html=1;exitX=0.5;exitY=1;exitDx=0;exitDy=0;entryX=0.5;entryY=0;entryDx=0;entryDy=0;" edge="1" parent="1" source="bwiVI-DXOcjcneLZxq-_-21" target="bwiVI-DXOcjcneLZxq-_-29">
                    <mxGeometry relative="1" as="geometry">
                        <mxPoint x="420" y="440" as="targetPoint"/>
                    </mxGeometry>
                </mxCell>
                <mxCell id="bwiVI-DXOcjcneLZxq-_-21" value="" style="rhombus;whiteSpace=wrap;html=1;" vertex="1" parent="1">
                    <mxGeometry x="400" y="360" width="40" height="40" as="geometry"/>
                </mxCell>
                <mxCell id="bwiVI-DXOcjcneLZxq-_-22" style="edgeStyle=none;html=1;exitX=1;exitY=0.5;exitDx=0;exitDy=0;entryX=0;entryY=0.5;entryDx=0;entryDy=0;" edge="1" parent="1" source="bwiVI-DXOcjcneLZxq-_-23" target="bwiVI-DXOcjcneLZxq-_-21">
                    <mxGeometry relative="1" as="geometry"/>
                </mxCell>
                <mxCell id="bwiVI-DXOcjcneLZxq-_-23" value="Enter&amp;nbsp; newpassword" style="rounded=1;whiteSpace=wrap;html=1;" vertex="1" parent="1">
                    <mxGeometry x="240" y="360" width="120" height="40" as="geometry"/>
                </mxCell>
                <mxCell id="bwiVI-DXOcjcneLZxq-_-24" style="edgeStyle=none;html=1;exitX=0.5;exitY=0;exitDx=0;exitDy=0;entryX=0.5;entryY=1;entryDx=0;entryDy=0;" edge="1" parent="1" source="bwiVI-DXOcjcneLZxq-_-25" target="bwiVI-DXOcjcneLZxq-_-27">
                    <mxGeometry relative="1" as="geometry"/>
                </mxCell>
                <mxCell id="bwiVI-DXOcjcneLZxq-_-25" value="Update Password" style="rounded=1;whiteSpace=wrap;html=1;" vertex="1" parent="1">
                    <mxGeometry x="560" y="360" width="120" height="40" as="geometry"/>
                </mxCell>
                <mxCell id="bwiVI-DXOcjcneLZxq-_-26" value="" style="edgeStyle=none;html=1;entryX=1;entryY=0.5;entryDx=0;entryDy=0;" edge="1" parent="1" source="bwiVI-DXOcjcneLZxq-_-27" target="bwiVI-DXOcjcneLZxq-_-11">
                    <mxGeometry relative="1" as="geometry">
                        <mxPoint x="540" y="300" as="targetPoint"/>
                    </mxGeometry>
                </mxCell>
                <mxCell id="bwiVI-DXOcjcneLZxq-_-27" value="" style="rhombus;whiteSpace=wrap;html=1;" vertex="1" parent="1">
                    <mxGeometry x="600" y="280" width="40" height="40" as="geometry"/>
                </mxCell>
                <mxCell id="bwiVI-DXOcjcneLZxq-_-28" style="edgeStyle=none;html=1;exitX=1;exitY=0.5;exitDx=0;exitDy=0;entryX=0;entryY=0.5;entryDx=0;entryDy=0;" edge="1" parent="1" source="bwiVI-DXOcjcneLZxq-_-29" target="bwiVI-DXOcjcneLZxq-_-13">
                    <mxGeometry relative="1" as="geometry"/>
                </mxCell>
                <mxCell id="bwiVI-DXOcjcneLZxq-_-29" value="" style="rhombus;whiteSpace=wrap;html=1;" vertex="1" parent="1">
                    <mxGeometry x="400" y="440" width="40" height="40" as="geometry"/>
                </mxCell>
                <mxCell id="bwiVI-DXOcjcneLZxq-_-30" style="edgeStyle=none;html=1;exitX=1;exitY=0.5;exitDx=0;exitDy=0;entryX=0;entryY=0.5;entryDx=0;entryDy=0;" edge="1" parent="1" source="bwiVI-DXOcjcneLZxq-_-32" target="bwiVI-DXOcjcneLZxq-_-29">
                    <mxGeometry relative="1" as="geometry"/>
                </mxCell>
                <mxCell id="bwiVI-DXOcjcneLZxq-_-31" style="edgeStyle=none;html=1;exitX=0.5;exitY=1;exitDx=0;exitDy=0;entryX=0;entryY=0.5;entryDx=0;entryDy=0;" edge="1" parent="1" source="bwiVI-DXOcjcneLZxq-_-32" target="bwiVI-DXOcjcneLZxq-_-15">
                    <mxGeometry relative="1" as="geometry">
                        <Array as="points">
                            <mxPoint x="180" y="540"/>
                        </Array>
                    </mxGeometry>
                </mxCell>
                <mxCell id="bwiVI-DXOcjcneLZxq-_-32" value="" style="rhombus;whiteSpace=wrap;html=1;" vertex="1" parent="1">
                    <mxGeometry x="160" y="440" width="40" height="40" as="geometry"/>
                </mxCell>
                <mxCell id="bwiVI-DXOcjcneLZxq-_-33" value="Yes" style="text;html=1;strokeColor=none;fillColor=none;align=center;verticalAlign=middle;whiteSpace=wrap;rounded=0;" vertex="1" parent="1">
                    <mxGeometry x="440" y="360" width="60" height="20" as="geometry"/>
                </mxCell>
                <mxCell id="bwiVI-DXOcjcneLZxq-_-34" value="No" style="text;html=1;strokeColor=none;fillColor=none;align=center;verticalAlign=middle;whiteSpace=wrap;rounded=0;" vertex="1" parent="1">
                    <mxGeometry x="420" y="400" width="60" height="20" as="geometry"/>
                </mxCell>
            </root>
        </mxGraphModel>
    </diagram>
    <diagram id="gT3FryecW-CjHEzO_n_v" name="Print">
        <mxGraphModel dx="1953" dy="1478" grid="1" gridSize="10" guides="1" tooltips="1" connect="1" arrows="1" fold="1" page="1" pageScale="1" pageWidth="850" pageHeight="1100" math="0" shadow="0">
            <root>
                <mxCell id="0"/>
                <mxCell id="1" parent="0"/>
                <mxCell id="54" style="edgeStyle=none;html=1;exitX=0.5;exitY=1;exitDx=0;exitDy=0;entryX=0.5;entryY=0;entryDx=0;entryDy=0;" edge="1" parent="1" source="52" target="53">
                    <mxGeometry relative="1" as="geometry">
                        <Array as="points">
                            <mxPoint x="420" y="180"/>
                            <mxPoint x="740" y="180"/>
                        </Array>
                    </mxGeometry>
                </mxCell>
                <mxCell id="52" value="Choose Print Documents" style="rounded=1;whiteSpace=wrap;html=1;" vertex="1" parent="1">
                    <mxGeometry x="360" y="120" width="120" height="40" as="geometry"/>
                </mxCell>
                <mxCell id="zESf34RMkvPdHZ8S7SSu-73" style="edgeStyle=none;html=1;exitX=0;exitY=0.5;exitDx=0;exitDy=0;entryX=0.5;entryY=0;entryDx=0;entryDy=0;" edge="1" parent="1" source="53" target="55">
                    <mxGeometry relative="1" as="geometry">
                        <Array as="points">
                            <mxPoint x="420" y="220"/>
                        </Array>
                    </mxGeometry>
                </mxCell>
                <mxCell id="53" value="Display File Upload prompt" style="rounded=1;whiteSpace=wrap;html=1;" vertex="1" parent="1">
                    <mxGeometry x="680" y="200" width="120" height="40" as="geometry"/>
                </mxCell>
                <mxCell id="yiKP9DaiNhndDPsMYVBE-65" style="edgeStyle=none;html=1;exitX=0.5;exitY=1;exitDx=0;exitDy=0;entryX=0.5;entryY=0;entryDx=0;entryDy=0;" edge="1" parent="1" source="55" target="zESf34RMkvPdHZ8S7SSu-70">
                    <mxGeometry relative="1" as="geometry"/>
                </mxCell>
                <mxCell id="55" value="Upload File" style="rounded=1;whiteSpace=wrap;html=1;" vertex="1" parent="1">
                    <mxGeometry x="360" y="280" width="120" height="40" as="geometry"/>
                </mxCell>
                <mxCell id="dl_6bHb7XXs5_eiVzAke-56" style="edgeStyle=none;html=1;exitX=0.5;exitY=1;exitDx=0;exitDy=0;entryX=0.5;entryY=0;entryDx=0;entryDy=0;" edge="1" parent="1" source="zESf34RMkvPdHZ8S7SSu-64" target="zESf34RMkvPdHZ8S7SSu-71">
                    <mxGeometry relative="1" as="geometry"/>
                </mxCell>
                <mxCell id="zESf34RMkvPdHZ8S7SSu-64" value="" style="ellipse;fillColor=strokeColor;" vertex="1" parent="1">
                    <mxGeometry x="240" y="40" width="40" height="40" as="geometry"/>
                </mxCell>
                <mxCell id="yiKP9DaiNhndDPsMYVBE-66" style="edgeStyle=none;html=1;exitX=1;exitY=0.5;exitDx=0;exitDy=0;entryX=0;entryY=0.5;entryDx=0;entryDy=0;" edge="1" parent="1" source="zESf34RMkvPdHZ8S7SSu-70" target="zESf34RMkvPdHZ8S7SSu-72">
                    <mxGeometry relative="1" as="geometry"/>
                </mxCell>
                <mxCell id="dl_6bHb7XXs5_eiVzAke-57" style="edgeStyle=none;html=1;exitX=0.5;exitY=1;exitDx=0;exitDy=0;entryX=0.5;entryY=0;entryDx=0;entryDy=0;" edge="1" parent="1" source="zESf34RMkvPdHZ8S7SSu-70" target="yiKP9DaiNhndDPsMYVBE-64">
                    <mxGeometry relative="1" as="geometry"/>
                </mxCell>
                <mxCell id="zESf34RMkvPdHZ8S7SSu-70" value="" style="rhombus;whiteSpace=wrap;html=1;" vertex="1" parent="1">
                    <mxGeometry x="400" y="360" width="40" height="40" as="geometry"/>
                </mxCell>
                <mxCell id="yiKP9DaiNhndDPsMYVBE-87" style="edgeStyle=none;html=1;exitX=0;exitY=0.5;exitDx=0;exitDy=0;entryX=0.5;entryY=0;entryDx=0;entryDy=0;" edge="1" parent="1" source="zESf34RMkvPdHZ8S7SSu-71" target="yiKP9DaiNhndDPsMYVBE-86">
                    <mxGeometry relative="1" as="geometry">
                        <Array as="points">
                            <mxPoint x="100" y="140"/>
                        </Array>
                    </mxGeometry>
                </mxCell>
                <mxCell id="yiKP9DaiNhndDPsMYVBE-90" style="edgeStyle=none;html=1;exitX=1;exitY=0.5;exitDx=0;exitDy=0;entryX=0;entryY=0.5;entryDx=0;entryDy=0;" edge="1" parent="1" source="zESf34RMkvPdHZ8S7SSu-71" target="52">
                    <mxGeometry relative="1" as="geometry"/>
                </mxCell>
                <mxCell id="zESf34RMkvPdHZ8S7SSu-71" value="" style="rhombus;whiteSpace=wrap;html=1;" vertex="1" parent="1">
                    <mxGeometry x="240" y="120" width="40" height="40" as="geometry"/>
                </mxCell>
                <mxCell id="zESf34RMkvPdHZ8S7SSu-74" style="edgeStyle=none;html=1;exitX=0.5;exitY=0;exitDx=0;exitDy=0;entryX=0.5;entryY=1;entryDx=0;entryDy=0;" edge="1" parent="1" source="zESf34RMkvPdHZ8S7SSu-72" target="53">
                    <mxGeometry relative="1" as="geometry"/>
                </mxCell>
                <mxCell id="zESf34RMkvPdHZ8S7SSu-72" value="Display Error file format" style="rounded=1;whiteSpace=wrap;html=1;" vertex="1" parent="1">
                    <mxGeometry x="680" y="360" width="120" height="40" as="geometry"/>
                </mxCell>
                <mxCell id="yiKP9DaiNhndDPsMYVBE-69" style="edgeStyle=none;html=1;exitX=0.25;exitY=1;exitDx=0;exitDy=0;entryX=0.5;entryY=0;entryDx=0;entryDy=0;" edge="1" parent="1" source="yiKP9DaiNhndDPsMYVBE-64" target="yiKP9DaiNhndDPsMYVBE-67">
                    <mxGeometry relative="1" as="geometry"/>
                </mxCell>
                <mxCell id="yiKP9DaiNhndDPsMYVBE-70" style="edgeStyle=none;html=1;exitX=0.75;exitY=1;exitDx=0;exitDy=0;entryX=0.5;entryY=0;entryDx=0;entryDy=0;" edge="1" parent="1" source="yiKP9DaiNhndDPsMYVBE-64" target="yiKP9DaiNhndDPsMYVBE-68">
                    <mxGeometry relative="1" as="geometry"/>
                </mxCell>
                <mxCell id="yiKP9DaiNhndDPsMYVBE-64" value="" style="rounded=1;whiteSpace=wrap;html=1;" vertex="1" parent="1">
                    <mxGeometry x="260" y="430" width="320" height="10" as="geometry"/>
                </mxCell>
                <mxCell id="yiKP9DaiNhndDPsMYVBE-78" style="edgeStyle=none;html=1;exitX=0.5;exitY=1;exitDx=0;exitDy=0;entryX=0.25;entryY=0;entryDx=0;entryDy=0;" edge="1" parent="1" source="yiKP9DaiNhndDPsMYVBE-67" target="yiKP9DaiNhndDPsMYVBE-73">
                    <mxGeometry relative="1" as="geometry"/>
                </mxCell>
                <mxCell id="yiKP9DaiNhndDPsMYVBE-67" value="Specify printing properties" style="rounded=1;whiteSpace=wrap;html=1;" vertex="1" parent="1">
                    <mxGeometry x="280" y="480" width="120" height="40" as="geometry"/>
                </mxCell>
                <mxCell id="yiKP9DaiNhndDPsMYVBE-76" style="edgeStyle=none;html=1;exitX=0.5;exitY=1;exitDx=0;exitDy=0;entryX=0.5;entryY=0;entryDx=0;entryDy=0;" edge="1" parent="1" source="yiKP9DaiNhndDPsMYVBE-68" target="yiKP9DaiNhndDPsMYVBE-71">
                    <mxGeometry relative="1" as="geometry"/>
                </mxCell>
                <mxCell id="yiKP9DaiNhndDPsMYVBE-68" value="Choose Printer" style="rounded=1;whiteSpace=wrap;html=1;" vertex="1" parent="1">
                    <mxGeometry x="440" y="480" width="120" height="40" as="geometry"/>
                </mxCell>
                <mxCell id="yiKP9DaiNhndDPsMYVBE-77" style="edgeStyle=none;html=1;exitX=1;exitY=0.5;exitDx=0;exitDy=0;" edge="1" parent="1" source="yiKP9DaiNhndDPsMYVBE-71" target="yiKP9DaiNhndDPsMYVBE-72">
                    <mxGeometry relative="1" as="geometry"/>
                </mxCell>
                <mxCell id="yiKP9DaiNhndDPsMYVBE-79" style="edgeStyle=none;html=1;exitX=0.5;exitY=1;exitDx=0;exitDy=0;entryX=0.75;entryY=0;entryDx=0;entryDy=0;" edge="1" parent="1" source="yiKP9DaiNhndDPsMYVBE-71" target="yiKP9DaiNhndDPsMYVBE-73">
                    <mxGeometry relative="1" as="geometry"/>
                </mxCell>
                <mxCell id="yiKP9DaiNhndDPsMYVBE-71" value="" style="rhombus;whiteSpace=wrap;html=1;" vertex="1" parent="1">
                    <mxGeometry x="480" y="560" width="40" height="40" as="geometry"/>
                </mxCell>
                <mxCell id="yiKP9DaiNhndDPsMYVBE-75" style="edgeStyle=none;html=1;exitX=0.5;exitY=0;exitDx=0;exitDy=0;entryX=1;entryY=0.5;entryDx=0;entryDy=0;" edge="1" parent="1" source="yiKP9DaiNhndDPsMYVBE-72" target="yiKP9DaiNhndDPsMYVBE-68">
                    <mxGeometry relative="1" as="geometry">
                        <Array as="points">
                            <mxPoint x="740" y="500"/>
                        </Array>
                    </mxGeometry>
                </mxCell>
                <mxCell id="yiKP9DaiNhndDPsMYVBE-72" value="Display Printer not available" style="rounded=1;whiteSpace=wrap;html=1;" vertex="1" parent="1">
                    <mxGeometry x="680" y="560" width="120" height="40" as="geometry"/>
                </mxCell>
                <mxCell id="yiKP9DaiNhndDPsMYVBE-81" style="edgeStyle=none;html=1;exitX=0.5;exitY=1;exitDx=0;exitDy=0;entryX=0.5;entryY=0;entryDx=0;entryDy=0;" edge="1" parent="1" source="yiKP9DaiNhndDPsMYVBE-73" target="yiKP9DaiNhndDPsMYVBE-80">
                    <mxGeometry relative="1" as="geometry"/>
                </mxCell>
                <mxCell id="yiKP9DaiNhndDPsMYVBE-73" value="" style="rounded=1;whiteSpace=wrap;html=1;" vertex="1" parent="1">
                    <mxGeometry x="260" y="630" width="320" height="10" as="geometry"/>
                </mxCell>
                <mxCell id="yiKP9DaiNhndDPsMYVBE-83" style="edgeStyle=none;html=1;exitX=1;exitY=0.5;exitDx=0;exitDy=0;entryX=0;entryY=0.5;entryDx=0;entryDy=0;" edge="1" parent="1" source="yiKP9DaiNhndDPsMYVBE-80" target="yiKP9DaiNhndDPsMYVBE-82">
                    <mxGeometry relative="1" as="geometry"/>
                </mxCell>
                <mxCell id="yiKP9DaiNhndDPsMYVBE-109" style="edgeStyle=none;html=1;exitX=0.5;exitY=1;exitDx=0;exitDy=0;entryX=0;entryY=0.5;entryDx=0;entryDy=0;" edge="1" parent="1" source="yiKP9DaiNhndDPsMYVBE-80" target="yiKP9DaiNhndDPsMYVBE-106">
                    <mxGeometry relative="1" as="geometry">
                        <Array as="points">
                            <mxPoint x="420" y="1060"/>
                        </Array>
                    </mxGeometry>
                </mxCell>
                <mxCell id="yiKP9DaiNhndDPsMYVBE-80" value="" style="rhombus;whiteSpace=wrap;html=1;" vertex="1" parent="1">
                    <mxGeometry x="400" y="680" width="40" height="40" as="geometry"/>
                </mxCell>
                <mxCell id="yiKP9DaiNhndDPsMYVBE-93" style="edgeStyle=none;html=1;exitX=0.5;exitY=1;exitDx=0;exitDy=0;entryX=1;entryY=0.5;entryDx=0;entryDy=0;" edge="1" parent="1" source="yiKP9DaiNhndDPsMYVBE-82" target="yiKP9DaiNhndDPsMYVBE-86">
                    <mxGeometry relative="1" as="geometry">
                        <Array as="points">
                            <mxPoint x="740" y="780"/>
                        </Array>
                    </mxGeometry>
                </mxCell>
                <mxCell id="yiKP9DaiNhndDPsMYVBE-82" value="Display Not enough Printing Pages" style="rounded=1;whiteSpace=wrap;html=1;" vertex="1" parent="1">
                    <mxGeometry x="680" y="680" width="120" height="40" as="geometry"/>
                </mxCell>
                <mxCell id="yiKP9DaiNhndDPsMYVBE-92" style="edgeStyle=none;html=1;exitX=0.5;exitY=1;exitDx=0;exitDy=0;entryX=0.5;entryY=0;entryDx=0;entryDy=0;" edge="1" parent="1" source="yiKP9DaiNhndDPsMYVBE-86" target="yiKP9DaiNhndDPsMYVBE-88">
                    <mxGeometry relative="1" as="geometry">
                        <Array as="points">
                            <mxPoint x="100" y="820"/>
                            <mxPoint x="740" y="820"/>
                        </Array>
                    </mxGeometry>
                </mxCell>
                <mxCell id="yiKP9DaiNhndDPsMYVBE-86" value="Buy Printing Pages&amp;nbsp;" style="rounded=1;whiteSpace=wrap;html=1;" vertex="1" parent="1">
                    <mxGeometry x="40" y="760" width="120" height="40" as="geometry"/>
                </mxCell>
                <mxCell id="yiKP9DaiNhndDPsMYVBE-95" style="edgeStyle=none;html=1;exitX=0.5;exitY=1;exitDx=0;exitDy=0;entryX=0.5;entryY=0;entryDx=0;entryDy=0;" edge="1" parent="1" source="yiKP9DaiNhndDPsMYVBE-88" target="yiKP9DaiNhndDPsMYVBE-94">
                    <mxGeometry relative="1" as="geometry">
                        <Array as="points">
                            <mxPoint x="740" y="900"/>
                            <mxPoint x="100" y="900"/>
                        </Array>
                    </mxGeometry>
                </mxCell>
                <mxCell id="yiKP9DaiNhndDPsMYVBE-88" value="Display BKPay" style="rounded=1;whiteSpace=wrap;html=1;" vertex="1" parent="1">
                    <mxGeometry x="680" y="840" width="120" height="40" as="geometry"/>
                </mxCell>
                <mxCell id="yiKP9DaiNhndDPsMYVBE-97" style="edgeStyle=none;html=1;exitX=0.5;exitY=1;exitDx=0;exitDy=0;entryX=0;entryY=0.5;entryDx=0;entryDy=0;" edge="1" parent="1" source="yiKP9DaiNhndDPsMYVBE-94" target="yiKP9DaiNhndDPsMYVBE-96">
                    <mxGeometry relative="1" as="geometry">
                        <Array as="points">
                            <mxPoint x="100" y="980"/>
                        </Array>
                    </mxGeometry>
                </mxCell>
                <mxCell id="yiKP9DaiNhndDPsMYVBE-94" value="Enter Credits Number" style="rounded=1;whiteSpace=wrap;html=1;" vertex="1" parent="1">
                    <mxGeometry x="40" y="920" width="120" height="40" as="geometry"/>
                </mxCell>
                <mxCell id="yiKP9DaiNhndDPsMYVBE-99" style="edgeStyle=none;html=1;exitX=1;exitY=0.5;exitDx=0;exitDy=0;entryX=0;entryY=0.5;entryDx=0;entryDy=0;" edge="1" parent="1" source="yiKP9DaiNhndDPsMYVBE-96" target="yiKP9DaiNhndDPsMYVBE-98">
                    <mxGeometry relative="1" as="geometry"/>
                </mxCell>
                <mxCell id="yiKP9DaiNhndDPsMYVBE-107" style="edgeStyle=none;html=1;exitX=0.5;exitY=1;exitDx=0;exitDy=0;entryX=0.5;entryY=0;entryDx=0;entryDy=0;" edge="1" parent="1" source="yiKP9DaiNhndDPsMYVBE-96" target="yiKP9DaiNhndDPsMYVBE-106">
                    <mxGeometry relative="1" as="geometry"/>
                </mxCell>
                <mxCell id="yiKP9DaiNhndDPsMYVBE-96" value="" style="rhombus;whiteSpace=wrap;html=1;" vertex="1" parent="1">
                    <mxGeometry x="560" y="960" width="40" height="40" as="geometry"/>
                </mxCell>
                <mxCell id="yiKP9DaiNhndDPsMYVBE-100" style="edgeStyle=none;html=1;exitX=0.5;exitY=0;exitDx=0;exitDy=0;entryX=1;entryY=0.5;entryDx=0;entryDy=0;" edge="1" parent="1" source="yiKP9DaiNhndDPsMYVBE-98" target="yiKP9DaiNhndDPsMYVBE-94">
                    <mxGeometry relative="1" as="geometry">
                        <Array as="points">
                            <mxPoint x="740" y="940"/>
                        </Array>
                    </mxGeometry>
                </mxCell>
                <mxCell id="yiKP9DaiNhndDPsMYVBE-98" value="Display Payment Error" style="rounded=1;whiteSpace=wrap;html=1;" vertex="1" parent="1">
                    <mxGeometry x="680" y="960" width="120" height="40" as="geometry"/>
                </mxCell>
                <mxCell id="RSLSFAYbCCZ835VubICv-56" style="edgeStyle=none;html=1;exitX=0.5;exitY=1;exitDx=0;exitDy=0;entryX=0;entryY=0.5;entryDx=0;entryDy=0;" edge="1" parent="1" source="yiKP9DaiNhndDPsMYVBE-103" target="RSLSFAYbCCZ835VubICv-55">
                    <mxGeometry relative="1" as="geometry"/>
                </mxCell>
                <mxCell id="yiKP9DaiNhndDPsMYVBE-103" value="Display Printing Success" style="rounded=1;whiteSpace=wrap;html=1;" vertex="1" parent="1">
                    <mxGeometry x="680" y="1040" width="120" height="40" as="geometry"/>
                </mxCell>
                <mxCell id="yiKP9DaiNhndDPsMYVBE-108" style="edgeStyle=none;html=1;exitX=1;exitY=0.5;exitDx=0;exitDy=0;entryX=0;entryY=0.5;entryDx=0;entryDy=0;" edge="1" parent="1" source="yiKP9DaiNhndDPsMYVBE-106" target="yiKP9DaiNhndDPsMYVBE-103">
                    <mxGeometry relative="1" as="geometry"/>
                </mxCell>
                <mxCell id="yiKP9DaiNhndDPsMYVBE-106" value="" style="rhombus;whiteSpace=wrap;html=1;" vertex="1" parent="1">
                    <mxGeometry x="560" y="1040" width="40" height="40" as="geometry"/>
                </mxCell>
                <mxCell id="RSLSFAYbCCZ835VubICv-55" value="" style="ellipse;html=1;shape=endState;fillColor=strokeColor;direction=south;" vertex="1" parent="1">
                    <mxGeometry x="720" y="1120" width="40" height="40" as="geometry"/>
                </mxCell>
                <mxCell id="6XSpKrGPZQrEwWn1iI1l-55" value="Yes" style="text;html=1;strokeColor=none;fillColor=none;align=center;verticalAlign=middle;whiteSpace=wrap;rounded=0;" vertex="1" parent="1">
                    <mxGeometry x="420" y="400" width="60" height="20" as="geometry"/>
                </mxCell>
                <mxCell id="6XSpKrGPZQrEwWn1iI1l-56" value="Yes" style="text;html=1;strokeColor=none;fillColor=none;align=center;verticalAlign=middle;whiteSpace=wrap;rounded=0;" vertex="1" parent="1">
                    <mxGeometry x="500" y="600" width="60" height="20" as="geometry"/>
                </mxCell>
                <mxCell id="6XSpKrGPZQrEwWn1iI1l-57" value="Yes" style="text;html=1;strokeColor=none;fillColor=none;align=center;verticalAlign=middle;whiteSpace=wrap;rounded=0;" vertex="1" parent="1">
                    <mxGeometry x="420" y="720" width="60" height="20" as="geometry"/>
                </mxCell>
                <mxCell id="6XSpKrGPZQrEwWn1iI1l-58" value="Yes" style="text;html=1;strokeColor=none;fillColor=none;align=center;verticalAlign=middle;whiteSpace=wrap;rounded=0;" vertex="1" parent="1">
                    <mxGeometry x="580" y="1000" width="60" height="20" as="geometry"/>
                </mxCell>
                <mxCell id="6XSpKrGPZQrEwWn1iI1l-59" value="buy" style="text;html=1;strokeColor=none;fillColor=none;align=center;verticalAlign=middle;whiteSpace=wrap;rounded=0;" vertex="1" parent="1">
                    <mxGeometry x="180" y="120" width="60" height="20" as="geometry"/>
                </mxCell>
                <mxCell id="6XSpKrGPZQrEwWn1iI1l-60" value="print" style="text;html=1;strokeColor=none;fillColor=none;align=center;verticalAlign=middle;whiteSpace=wrap;rounded=0;" vertex="1" parent="1">
                    <mxGeometry x="280" y="120" width="60" height="20" as="geometry"/>
                </mxCell>
                <mxCell id="6XSpKrGPZQrEwWn1iI1l-61" value="No" style="text;html=1;strokeColor=none;fillColor=none;align=center;verticalAlign=middle;whiteSpace=wrap;rounded=0;" vertex="1" parent="1">
                    <mxGeometry x="600" y="960" width="60" height="20" as="geometry"/>
                </mxCell>
                <mxCell id="6XSpKrGPZQrEwWn1iI1l-62" value="No" style="text;html=1;strokeColor=none;fillColor=none;align=center;verticalAlign=middle;whiteSpace=wrap;rounded=0;" vertex="1" parent="1">
                    <mxGeometry x="440" y="680" width="60" height="20" as="geometry"/>
                </mxCell>
                <mxCell id="6XSpKrGPZQrEwWn1iI1l-63" value="No" style="text;html=1;strokeColor=none;fillColor=none;align=center;verticalAlign=middle;whiteSpace=wrap;rounded=0;" vertex="1" parent="1">
                    <mxGeometry x="520" y="560" width="60" height="20" as="geometry"/>
                </mxCell>
            </root>
        </mxGraphModel>
    </diagram>
    <diagram id="7jJ9QKA-UKC-4LhXm7wZ" name="Printer Manage">
        <mxGraphModel dx="1041" dy="788" grid="1" gridSize="10" guides="1" tooltips="1" connect="1" arrows="1" fold="1" page="1" pageScale="1" pageWidth="850" pageHeight="1100" math="0" shadow="0">
            <root>
                <mxCell id="0"/>
                <mxCell id="1" parent="0"/>
                <mxCell id="g4PMAr1Wei0ogcqRe7uy-8" value="" style="edgeStyle=none;html=1;" edge="1" parent="1" source="OeciqfJA749AD_wcR-Q3-1" target="OeciqfJA749AD_wcR-Q3-12">
                    <mxGeometry relative="1" as="geometry"/>
                </mxCell>
                <mxCell id="OeciqfJA749AD_wcR-Q3-1" value="" style="ellipse;fillColor=strokeColor;" vertex="1" parent="1">
                    <mxGeometry x="200" y="40" width="40" height="40" as="geometry"/>
                </mxCell>
                <mxCell id="OeciqfJA749AD_wcR-Q3-2" value="" style="ellipse;html=1;shape=endState;fillColor=strokeColor;" vertex="1" parent="1">
                    <mxGeometry x="640" y="840" width="40" height="40" as="geometry"/>
                </mxCell>
                <mxCell id="OeciqfJA749AD_wcR-Q3-14" style="edgeStyle=none;html=1;exitX=0.5;exitY=1;exitDx=0;exitDy=0;entryX=0.5;entryY=0;entryDx=0;entryDy=0;" edge="1" parent="1" source="OeciqfJA749AD_wcR-Q3-7" target="OeciqfJA749AD_wcR-Q3-9">
                    <mxGeometry relative="1" as="geometry">
                        <Array as="points">
                            <mxPoint x="340" y="180"/>
                            <mxPoint x="660" y="180"/>
                        </Array>
                    </mxGeometry>
                </mxCell>
                <mxCell id="OeciqfJA749AD_wcR-Q3-7" value="Choose a Printer" style="rounded=1;whiteSpace=wrap;html=1;" vertex="1" parent="1">
                    <mxGeometry x="280" y="120" width="120" height="40" as="geometry"/>
                </mxCell>
                <mxCell id="OeciqfJA749AD_wcR-Q3-15" style="edgeStyle=none;html=1;exitX=0.5;exitY=1;exitDx=0;exitDy=0;entryX=0.5;entryY=0;entryDx=0;entryDy=0;" edge="1" parent="1" source="OeciqfJA749AD_wcR-Q3-9" target="OeciqfJA749AD_wcR-Q3-10">
                    <mxGeometry relative="1" as="geometry">
                        <Array as="points">
                            <mxPoint x="660" y="260"/>
                            <mxPoint x="340" y="260"/>
                        </Array>
                    </mxGeometry>
                </mxCell>
                <mxCell id="OeciqfJA749AD_wcR-Q3-9" value="Display Details of that Printer" style="rounded=1;whiteSpace=wrap;html=1;" vertex="1" parent="1">
                    <mxGeometry x="600" y="200" width="120" height="40" as="geometry"/>
                </mxCell>
                <mxCell id="UFFP9tWhfZzLQItwhRz4-2" style="edgeStyle=none;html=1;exitX=0.5;exitY=1;exitDx=0;exitDy=0;entryX=0.5;entryY=0;entryDx=0;entryDy=0;" edge="1" parent="1" source="OeciqfJA749AD_wcR-Q3-10" target="UFFP9tWhfZzLQItwhRz4-1">
                    <mxGeometry relative="1" as="geometry">
                        <Array as="points">
                            <mxPoint x="340" y="340"/>
                            <mxPoint x="660" y="340"/>
                        </Array>
                    </mxGeometry>
                </mxCell>
                <mxCell id="OeciqfJA749AD_wcR-Q3-10" value="Enable/Disable Printer" style="rounded=1;whiteSpace=wrap;html=1;" vertex="1" parent="1">
                    <mxGeometry x="280" y="280" width="120" height="40" as="geometry"/>
                </mxCell>
                <mxCell id="g4PMAr1Wei0ogcqRe7uy-9" value="" style="edgeStyle=none;html=1;" edge="1" parent="1" source="OeciqfJA749AD_wcR-Q3-12" target="OeciqfJA749AD_wcR-Q3-7">
                    <mxGeometry relative="1" as="geometry"/>
                </mxCell>
                <mxCell id="g4PMAr1Wei0ogcqRe7uy-10" style="edgeStyle=none;html=1;exitX=0;exitY=0.5;exitDx=0;exitDy=0;entryX=0.5;entryY=0;entryDx=0;entryDy=0;" edge="1" parent="1" source="OeciqfJA749AD_wcR-Q3-12" target="OeciqfJA749AD_wcR-Q3-13">
                    <mxGeometry relative="1" as="geometry">
                        <Array as="points">
                            <mxPoint x="100" y="140"/>
                        </Array>
                    </mxGeometry>
                </mxCell>
                <mxCell id="OeciqfJA749AD_wcR-Q3-12" value="" style="rhombus;whiteSpace=wrap;html=1;" vertex="1" parent="1">
                    <mxGeometry x="200" y="120" width="40" height="40" as="geometry"/>
                </mxCell>
                <mxCell id="UFFP9tWhfZzLQItwhRz4-6" style="edgeStyle=none;html=1;exitX=0.5;exitY=1;exitDx=0;exitDy=0;entryX=0.5;entryY=0;entryDx=0;entryDy=0;" edge="1" parent="1" source="OeciqfJA749AD_wcR-Q3-13" target="UFFP9tWhfZzLQItwhRz4-4">
                    <mxGeometry relative="1" as="geometry">
                        <Array as="points">
                            <mxPoint x="100" y="500"/>
                            <mxPoint x="660" y="500"/>
                        </Array>
                    </mxGeometry>
                </mxCell>
                <mxCell id="OeciqfJA749AD_wcR-Q3-13" value="Add Printer" style="rounded=1;whiteSpace=wrap;html=1;" vertex="1" parent="1">
                    <mxGeometry x="40" y="440" width="120" height="40" as="geometry"/>
                </mxCell>
                <mxCell id="g4PMAr1Wei0ogcqRe7uy-7" style="edgeStyle=none;html=1;exitX=1;exitY=0.5;exitDx=0;exitDy=0;entryX=1;entryY=0.5;entryDx=0;entryDy=0;" edge="1" parent="1" source="UFFP9tWhfZzLQItwhRz4-1" target="OeciqfJA749AD_wcR-Q3-2">
                    <mxGeometry relative="1" as="geometry">
                        <Array as="points">
                            <mxPoint x="760" y="380"/>
                            <mxPoint x="760" y="860"/>
                        </Array>
                    </mxGeometry>
                </mxCell>
                <mxCell id="UFFP9tWhfZzLQItwhRz4-1" value="Display Enable/Disable Success" style="rounded=1;whiteSpace=wrap;html=1;" vertex="1" parent="1">
                    <mxGeometry x="600" y="360" width="120" height="40" as="geometry"/>
                </mxCell>
                <mxCell id="g4PMAr1Wei0ogcqRe7uy-3" style="edgeStyle=none;html=1;exitX=0.5;exitY=1;exitDx=0;exitDy=0;entryX=0.5;entryY=0;entryDx=0;entryDy=0;" edge="1" parent="1" source="UFFP9tWhfZzLQItwhRz4-3" target="g4PMAr1Wei0ogcqRe7uy-2">
                    <mxGeometry relative="1" as="geometry">
                        <Array as="points">
                            <mxPoint x="100" y="660"/>
                            <mxPoint x="660" y="660"/>
                        </Array>
                    </mxGeometry>
                </mxCell>
                <mxCell id="UFFP9tWhfZzLQItwhRz4-3" value="Enter Printer Details" style="rounded=1;whiteSpace=wrap;html=1;" vertex="1" parent="1">
                    <mxGeometry x="40" y="600" width="120" height="40" as="geometry"/>
                </mxCell>
                <mxCell id="g4PMAr1Wei0ogcqRe7uy-1" style="edgeStyle=none;html=1;exitX=0.5;exitY=1;exitDx=0;exitDy=0;entryX=0.5;entryY=0;entryDx=0;entryDy=0;" edge="1" parent="1" source="UFFP9tWhfZzLQItwhRz4-4" target="UFFP9tWhfZzLQItwhRz4-3">
                    <mxGeometry relative="1" as="geometry">
                        <Array as="points">
                            <mxPoint x="660" y="580"/>
                            <mxPoint x="100" y="580"/>
                        </Array>
                    </mxGeometry>
                </mxCell>
                <mxCell id="UFFP9tWhfZzLQItwhRz4-4" value="Display Add Printer Page" style="rounded=1;whiteSpace=wrap;html=1;" vertex="1" parent="1">
                    <mxGeometry x="600" y="520" width="120" height="40" as="geometry"/>
                </mxCell>
                <mxCell id="g4PMAr1Wei0ogcqRe7uy-4" style="edgeStyle=none;html=1;exitX=0.5;exitY=1;exitDx=0;exitDy=0;entryX=0.5;entryY=0;entryDx=0;entryDy=0;" edge="1" parent="1" source="g4PMAr1Wei0ogcqRe7uy-2" target="g4PMAr1Wei0ogcqRe7uy-5">
                    <mxGeometry relative="1" as="geometry">
                        <mxPoint x="660" y="750" as="targetPoint"/>
                    </mxGeometry>
                </mxCell>
                <mxCell id="g4PMAr1Wei0ogcqRe7uy-2" value="Display Add Success" style="rounded=1;whiteSpace=wrap;html=1;" vertex="1" parent="1">
                    <mxGeometry x="600" y="680" width="120" height="40" as="geometry"/>
                </mxCell>
                <mxCell id="g4PMAr1Wei0ogcqRe7uy-6" style="edgeStyle=none;html=1;exitX=0.5;exitY=1;exitDx=0;exitDy=0;entryX=0.5;entryY=0;entryDx=0;entryDy=0;" edge="1" parent="1" source="g4PMAr1Wei0ogcqRe7uy-5" target="OeciqfJA749AD_wcR-Q3-2">
                    <mxGeometry relative="1" as="geometry"/>
                </mxCell>
                <mxCell id="g4PMAr1Wei0ogcqRe7uy-5" value="" style="rhombus;whiteSpace=wrap;html=1;" vertex="1" parent="1">
                    <mxGeometry x="640" y="760" width="40" height="40" as="geometry"/>
                </mxCell>
            </root>
        </mxGraphModel>
    </diagram>
    <diagram id="26_sb1n6BL2RQ1NncRvW" name="Printing History">
        <mxGraphModel dx="1302" dy="985" grid="1" gridSize="10" guides="1" tooltips="1" connect="1" arrows="1" fold="1" page="1" pageScale="1" pageWidth="850" pageHeight="1100" math="0" shadow="0">
            <root>
                <mxCell id="0"/>
                <mxCell id="1" parent="0"/>
                <mxCell id="9c3e9L0AMAf0MjVC6Rri-2" value="" style="ellipse;html=1;shape=endState;fillColor=strokeColor;" vertex="1" parent="1">
                    <mxGeometry x="720" y="1000" width="40" height="40" as="geometry"/>
                </mxCell>
                <mxCell id="kk8YeSTYBTHJ2J8ykUpi-13" style="edgeStyle=none;html=1;exitX=1;exitY=0.5;exitDx=0;exitDy=0;entryX=0;entryY=0.5;entryDx=0;entryDy=0;" edge="1" parent="1" source="9c3e9L0AMAf0MjVC6Rri-5" target="kk8YeSTYBTHJ2J8ykUpi-1">
                    <mxGeometry relative="1" as="geometry"/>
                </mxCell>
                <mxCell id="kk8YeSTYBTHJ2J8ykUpi-41" style="edgeStyle=none;html=1;exitX=0;exitY=0.5;exitDx=0;exitDy=0;entryX=0.5;entryY=0;entryDx=0;entryDy=0;" edge="1" parent="1" source="9c3e9L0AMAf0MjVC6Rri-5" target="kk8YeSTYBTHJ2J8ykUpi-19">
                    <mxGeometry relative="1" as="geometry">
                        <Array as="points">
                            <mxPoint x="100" y="220"/>
                        </Array>
                    </mxGeometry>
                </mxCell>
                <mxCell id="9c3e9L0AMAf0MjVC6Rri-5" value="" style="rhombus;whiteSpace=wrap;html=1;" vertex="1" parent="1">
                    <mxGeometry x="200" y="200" width="40" height="40" as="geometry"/>
                </mxCell>
                <mxCell id="kk8YeSTYBTHJ2J8ykUpi-45" style="edgeStyle=none;html=1;exitX=0.5;exitY=1;exitDx=0;exitDy=0;entryX=0.5;entryY=0;entryDx=0;entryDy=0;" edge="1" parent="1" source="dHIU_cSMCNI0VY55N2y7-1" target="9c3e9L0AMAf0MjVC6Rri-5">
                    <mxGeometry relative="1" as="geometry"/>
                </mxCell>
                <mxCell id="dHIU_cSMCNI0VY55N2y7-1" value="" style="ellipse;fillColor=strokeColor;" vertex="1" parent="1">
                    <mxGeometry x="200" y="120" width="40" height="40" as="geometry"/>
                </mxCell>
                <mxCell id="kk8YeSTYBTHJ2J8ykUpi-9" style="edgeStyle=none;html=1;exitX=0.5;exitY=1;exitDx=0;exitDy=0;entryX=0.5;entryY=0;entryDx=0;entryDy=0;" edge="1" parent="1" source="xcy7LS8_xx-TIilvEYwQ-1" target="kk8YeSTYBTHJ2J8ykUpi-8">
                    <mxGeometry relative="1" as="geometry">
                        <Array as="points">
                            <mxPoint x="420" y="460"/>
                            <mxPoint x="740" y="460"/>
                        </Array>
                    </mxGeometry>
                </mxCell>
                <mxCell id="xcy7LS8_xx-TIilvEYwQ-1" value="Choose time filter" style="rounded=1;whiteSpace=wrap;html=1;" vertex="1" parent="1">
                    <mxGeometry x="360" y="400" width="120" height="40" as="geometry"/>
                </mxCell>
                <mxCell id="kk8YeSTYBTHJ2J8ykUpi-3" style="edgeStyle=none;html=1;exitX=0.5;exitY=1;exitDx=0;exitDy=0;entryX=0.5;entryY=0;entryDx=0;entryDy=0;" edge="1" parent="1" source="kk8YeSTYBTHJ2J8ykUpi-1" target="kk8YeSTYBTHJ2J8ykUpi-2">
                    <mxGeometry relative="1" as="geometry">
                        <Array as="points">
                            <mxPoint x="420" y="260"/>
                            <mxPoint x="740" y="260"/>
                        </Array>
                    </mxGeometry>
                </mxCell>
                <mxCell id="kk8YeSTYBTHJ2J8ykUpi-1" value="Access Printing History Pages" style="rounded=1;whiteSpace=wrap;html=1;" vertex="1" parent="1">
                    <mxGeometry x="360" y="200" width="120" height="40" as="geometry"/>
                </mxCell>
                <mxCell id="kk8YeSTYBTHJ2J8ykUpi-5" style="edgeStyle=none;html=1;exitX=0.5;exitY=1;exitDx=0;exitDy=0;entryX=1;entryY=0.5;entryDx=0;entryDy=0;" edge="1" parent="1" source="kk8YeSTYBTHJ2J8ykUpi-2" target="kk8YeSTYBTHJ2J8ykUpi-4">
                    <mxGeometry relative="1" as="geometry">
                        <Array as="points">
                            <mxPoint x="740" y="340"/>
                        </Array>
                    </mxGeometry>
                </mxCell>
                <mxCell id="kk8YeSTYBTHJ2J8ykUpi-2" value="Display List of Recent Printing Logs" style="rounded=1;whiteSpace=wrap;html=1;" vertex="1" parent="1">
                    <mxGeometry x="680" y="280" width="120" height="40" as="geometry"/>
                </mxCell>
                <mxCell id="kk8YeSTYBTHJ2J8ykUpi-6" style="edgeStyle=none;html=1;exitX=0.5;exitY=1;exitDx=0;exitDy=0;entryX=0.5;entryY=0;entryDx=0;entryDy=0;" edge="1" parent="1" source="kk8YeSTYBTHJ2J8ykUpi-4" target="xcy7LS8_xx-TIilvEYwQ-1">
                    <mxGeometry relative="1" as="geometry"/>
                </mxCell>
                <mxCell id="kk8YeSTYBTHJ2J8ykUpi-30" style="edgeStyle=none;html=1;exitX=0;exitY=0.5;exitDx=0;exitDy=0;entryX=0.5;entryY=0;entryDx=0;entryDy=0;" edge="1" parent="1" source="kk8YeSTYBTHJ2J8ykUpi-4" target="kk8YeSTYBTHJ2J8ykUpi-27">
                    <mxGeometry relative="1" as="geometry">
                        <Array as="points">
                            <mxPoint x="300" y="340"/>
                        </Array>
                    </mxGeometry>
                </mxCell>
                <mxCell id="kk8YeSTYBTHJ2J8ykUpi-4" value="" style="rhombus;whiteSpace=wrap;html=1;" vertex="1" parent="1">
                    <mxGeometry x="400" y="320" width="40" height="40" as="geometry"/>
                </mxCell>
                <mxCell id="kk8YeSTYBTHJ2J8ykUpi-12" style="edgeStyle=none;html=1;exitX=0.5;exitY=1;exitDx=0;exitDy=0;entryX=1;entryY=0.5;entryDx=0;entryDy=0;" edge="1" parent="1" source="kk8YeSTYBTHJ2J8ykUpi-8" target="kk8YeSTYBTHJ2J8ykUpi-11">
                    <mxGeometry relative="1" as="geometry">
                        <Array as="points">
                            <mxPoint x="740" y="540"/>
                        </Array>
                    </mxGeometry>
                </mxCell>
                <mxCell id="kk8YeSTYBTHJ2J8ykUpi-8" value="Display filterd Logs" style="rounded=1;whiteSpace=wrap;html=1;" vertex="1" parent="1">
                    <mxGeometry x="680" y="480" width="120" height="40" as="geometry"/>
                </mxCell>
                <mxCell id="kk8YeSTYBTHJ2J8ykUpi-25" value="" style="edgeStyle=none;html=1;" edge="1" parent="1" source="kk8YeSTYBTHJ2J8ykUpi-10" target="kk8YeSTYBTHJ2J8ykUpi-24">
                    <mxGeometry relative="1" as="geometry"/>
                </mxCell>
                <mxCell id="kk8YeSTYBTHJ2J8ykUpi-10" value="Choose a Student Printing Logs" style="rounded=1;whiteSpace=wrap;html=1;" vertex="1" parent="1">
                    <mxGeometry x="360" y="600" width="120" height="40" as="geometry"/>
                </mxCell>
                <mxCell id="kk8YeSTYBTHJ2J8ykUpi-15" style="edgeStyle=none;html=1;exitX=0.5;exitY=1;exitDx=0;exitDy=0;entryX=0.5;entryY=0;entryDx=0;entryDy=0;" edge="1" parent="1" source="kk8YeSTYBTHJ2J8ykUpi-11" target="kk8YeSTYBTHJ2J8ykUpi-10">
                    <mxGeometry relative="1" as="geometry"/>
                </mxCell>
                <mxCell id="kk8YeSTYBTHJ2J8ykUpi-11" value="" style="rhombus;whiteSpace=wrap;html=1;" vertex="1" parent="1">
                    <mxGeometry x="400" y="520" width="40" height="40" as="geometry"/>
                </mxCell>
                <mxCell id="kk8YeSTYBTHJ2J8ykUpi-35" style="edgeStyle=none;html=1;exitX=0.5;exitY=1;exitDx=0;exitDy=0;entryX=1;entryY=0.5;entryDx=0;entryDy=0;" edge="1" parent="1" source="kk8YeSTYBTHJ2J8ykUpi-17" target="kk8YeSTYBTHJ2J8ykUpi-34">
                    <mxGeometry relative="1" as="geometry">
                        <Array as="points">
                            <mxPoint x="740" y="780"/>
                        </Array>
                    </mxGeometry>
                </mxCell>
                <mxCell id="kk8YeSTYBTHJ2J8ykUpi-17" value="Display that Student Printing Logs" style="rounded=1;whiteSpace=wrap;html=1;" vertex="1" parent="1">
                    <mxGeometry x="680" y="680" width="120" height="40" as="geometry"/>
                </mxCell>
                <mxCell id="kk8YeSTYBTHJ2J8ykUpi-22" style="edgeStyle=none;html=1;exitX=0.5;exitY=1;exitDx=0;exitDy=0;entryX=0;entryY=0.5;entryDx=0;entryDy=0;" edge="1" parent="1" source="kk8YeSTYBTHJ2J8ykUpi-19" target="kk8YeSTYBTHJ2J8ykUpi-24">
                    <mxGeometry relative="1" as="geometry">
                        <mxPoint x="100" y="680" as="targetPoint"/>
                        <Array as="points">
                            <mxPoint x="100" y="700"/>
                        </Array>
                    </mxGeometry>
                </mxCell>
                <mxCell id="kk8YeSTYBTHJ2J8ykUpi-19" value="Acess Personal Printing Profile" style="rounded=1;whiteSpace=wrap;html=1;" vertex="1" parent="1">
                    <mxGeometry x="40" y="320" width="120" height="40" as="geometry"/>
                </mxCell>
                <mxCell id="kk8YeSTYBTHJ2J8ykUpi-26" style="edgeStyle=none;html=1;exitX=1;exitY=0.5;exitDx=0;exitDy=0;entryX=0;entryY=0.5;entryDx=0;entryDy=0;" edge="1" parent="1" source="kk8YeSTYBTHJ2J8ykUpi-24" target="kk8YeSTYBTHJ2J8ykUpi-17">
                    <mxGeometry relative="1" as="geometry"/>
                </mxCell>
                <mxCell id="kk8YeSTYBTHJ2J8ykUpi-24" value="" style="rhombus;whiteSpace=wrap;html=1;" vertex="1" parent="1">
                    <mxGeometry x="400" y="680" width="40" height="40" as="geometry"/>
                </mxCell>
                <mxCell id="kk8YeSTYBTHJ2J8ykUpi-31" style="edgeStyle=none;html=1;exitX=1;exitY=0.5;exitDx=0;exitDy=0;entryX=0;entryY=0.5;entryDx=0;entryDy=0;" edge="1" parent="1" source="kk8YeSTYBTHJ2J8ykUpi-27" target="kk8YeSTYBTHJ2J8ykUpi-11">
                    <mxGeometry relative="1" as="geometry"/>
                </mxCell>
                <mxCell id="kk8YeSTYBTHJ2J8ykUpi-32" style="edgeStyle=none;html=1;exitX=0.5;exitY=1;exitDx=0;exitDy=0;entryX=0;entryY=0.5;entryDx=0;entryDy=0;" edge="1" parent="1" source="kk8YeSTYBTHJ2J8ykUpi-27" target="kk8YeSTYBTHJ2J8ykUpi-34">
                    <mxGeometry relative="1" as="geometry">
                        <mxPoint x="360" y="780" as="targetPoint"/>
                        <Array as="points">
                            <mxPoint x="300" y="780"/>
                        </Array>
                    </mxGeometry>
                </mxCell>
                <mxCell id="kk8YeSTYBTHJ2J8ykUpi-27" value="" style="rhombus;whiteSpace=wrap;html=1;" vertex="1" parent="1">
                    <mxGeometry x="280" y="520" width="40" height="40" as="geometry"/>
                </mxCell>
                <mxCell id="kk8YeSTYBTHJ2J8ykUpi-38" style="edgeStyle=none;html=1;exitX=0.5;exitY=1;exitDx=0;exitDy=0;entryX=0.5;entryY=0;entryDx=0;entryDy=0;" edge="1" parent="1" source="kk8YeSTYBTHJ2J8ykUpi-33" target="kk8YeSTYBTHJ2J8ykUpi-37">
                    <mxGeometry relative="1" as="geometry">
                        <Array as="points">
                            <mxPoint x="420" y="900"/>
                            <mxPoint x="740" y="900"/>
                        </Array>
                    </mxGeometry>
                </mxCell>
                <mxCell id="kk8YeSTYBTHJ2J8ykUpi-33" value="Choose Statistic Page" style="rounded=1;whiteSpace=wrap;html=1;" vertex="1" parent="1">
                    <mxGeometry x="360" y="840" width="120" height="40" as="geometry"/>
                </mxCell>
                <mxCell id="kk8YeSTYBTHJ2J8ykUpi-36" style="edgeStyle=none;html=1;exitX=0.5;exitY=1;exitDx=0;exitDy=0;entryX=0.5;entryY=0;entryDx=0;entryDy=0;" edge="1" parent="1" source="kk8YeSTYBTHJ2J8ykUpi-34" target="kk8YeSTYBTHJ2J8ykUpi-33">
                    <mxGeometry relative="1" as="geometry"/>
                </mxCell>
                <mxCell id="kk8YeSTYBTHJ2J8ykUpi-34" value="" style="rhombus;whiteSpace=wrap;html=1;" vertex="1" parent="1">
                    <mxGeometry x="400" y="760" width="40" height="40" as="geometry"/>
                </mxCell>
                <mxCell id="kk8YeSTYBTHJ2J8ykUpi-39" style="edgeStyle=none;html=1;exitX=0.5;exitY=1;exitDx=0;exitDy=0;entryX=0.5;entryY=0;entryDx=0;entryDy=0;" edge="1" parent="1" source="kk8YeSTYBTHJ2J8ykUpi-37" target="9c3e9L0AMAf0MjVC6Rri-2">
                    <mxGeometry relative="1" as="geometry"/>
                </mxCell>
                <mxCell id="kk8YeSTYBTHJ2J8ykUpi-37" value="Display Report Details" style="rounded=1;whiteSpace=wrap;html=1;" vertex="1" parent="1">
                    <mxGeometry x="680" y="920" width="120" height="40" as="geometry"/>
                </mxCell>
                <mxCell id="kk8YeSTYBTHJ2J8ykUpi-42" value="SPSO" style="text;html=1;strokeColor=none;fillColor=none;align=center;verticalAlign=middle;whiteSpace=wrap;rounded=0;" vertex="1" parent="1">
                    <mxGeometry x="240" y="200" width="60" height="20" as="geometry"/>
                </mxCell>
                <mxCell id="kk8YeSTYBTHJ2J8ykUpi-43" value="Student" style="text;html=1;strokeColor=none;fillColor=none;align=center;verticalAlign=middle;whiteSpace=wrap;rounded=0;" vertex="1" parent="1">
                    <mxGeometry x="140" y="200" width="60" height="20" as="geometry"/>
                </mxCell>
            </root>
        </mxGraphModel>
    </diagram>
    <diagram id="gEBQuSay6vLqC2c4ZE-U" name="Utils">
        <mxGraphModel dx="1202" dy="909" grid="1" gridSize="10" guides="1" tooltips="1" connect="1" arrows="1" fold="1" page="1" pageScale="1" pageWidth="850" pageHeight="1100" math="0" shadow="0">
            <root>
                <mxCell id="0"/>
                <mxCell id="1" parent="0"/>
                <mxCell id="JlCG3Pla-LbKgOewmDqq-1" value="" style="ellipse;fillColor=strokeColor;" vertex="1" parent="1">
                    <mxGeometry x="40" y="320" width="40" height="40" as="geometry"/>
                </mxCell>
                <mxCell id="JlCG3Pla-LbKgOewmDqq-2" value="" style="ellipse;html=1;shape=endState;fillColor=strokeColor;" vertex="1" parent="1">
                    <mxGeometry x="40" y="400" width="40" height="40" as="geometry"/>
                </mxCell>
                <mxCell id="JlCG3Pla-LbKgOewmDqq-3" value="Yes" style="text;html=1;strokeColor=none;fillColor=none;align=center;verticalAlign=middle;whiteSpace=wrap;rounded=0;" vertex="1" parent="1">
                    <mxGeometry x="40" y="180" width="60" height="20" as="geometry"/>
                </mxCell>
                <mxCell id="JlCG3Pla-LbKgOewmDqq-4" value="No" style="text;html=1;strokeColor=none;fillColor=none;align=center;verticalAlign=middle;whiteSpace=wrap;rounded=0;" vertex="1" parent="1">
                    <mxGeometry x="40" y="140" width="60" height="20" as="geometry"/>
                </mxCell>
                <mxCell id="JlCG3Pla-LbKgOewmDqq-5" value="" style="rhombus;whiteSpace=wrap;html=1;" vertex="1" parent="1">
                    <mxGeometry x="40" y="480" width="80" height="80" as="geometry"/>
                </mxCell>
                <mxCell id="JlCG3Pla-LbKgOewmDqq-6" value="" style="rounded=1;whiteSpace=wrap;html=1;" vertex="1" parent="1">
                    <mxGeometry x="40" y="630" width="160" height="10" as="geometry"/>
                </mxCell>
            </root>
        </mxGraphModel>
    </diagram>
</mxfile>